<svg id="Layer_1" data-name="Layer 1" xmlns="http://www.w3.org/2000/svg" viewBox="0 0 48.72 49.25"><defs><style>.cls-1{fill:#231f20;stroke:#231f20;stroke-miterlimit:10;stroke-width:0.25px;}</style></defs><title>cog</title><path class="cls-1" d="M51.17,32c0-.54,0-1.08-.08-1.61L56.22,28a24.32,24.32,0,0,0-.62-2.87l-5.71.06a19.05,19.05,0,0,0-1.4-2.9l3.68-4.51a24.6,24.6,0,0,0-1.77-2.27l-5.24,2.59a19.24,19.24,0,0,0-2.52-2L44,10.32a24.38,24.38,0,0,0-2.54-1.25l-3.65,4.67a19.07,19.07,0,0,0-3.15-.7L33.41,7.21c-.47,0-.94,0-1.41,0s-.94,0-1.41,0L29.32,13a19.07,19.07,0,0,0-3.15.7L22.53,9.07A24.38,24.38,0,0,0,20,10.32l1.38,5.74a19.24,19.24,0,0,0-2.52,2L13.6,15.49a24.6,24.6,0,0,0-1.77,2.27l3.68,4.51a19.05,19.05,0,0,0-1.4,2.9l-5.71-.06A24.32,24.32,0,0,0,7.78,28l5.14,2.41c0,.53-.08,1.07-.08,1.61s0,1.08.08,1.61L7.88,36a24.34,24.34,0,0,0,.7,2.92l5.53-.06a19.05,19.05,0,0,0,1.4,2.9l-3.42,4.2A24.61,24.61,0,0,0,14,48.3l4.83-2.39a19.23,19.23,0,0,0,2.52,2L20.12,53.1a24.39,24.39,0,0,0,2.8,1.33l3.25-4.16a19.07,19.07,0,0,0,3.15.7l1.12,5.15c.52,0,1,.05,1.56.05s1,0,1.56-.05L34.68,51a19.07,19.07,0,0,0,3.15-.7l3.25,4.16a24.39,24.39,0,0,0,2.8-1.33l-1.23-5.16a19.23,19.23,0,0,0,2.52-2L50,48.3a24.61,24.61,0,0,0,1.93-2.37l-3.42-4.2a19.05,19.05,0,0,0,1.4-2.9l5.53.06a24.34,24.34,0,0,0,.7-2.92l-5-2.36C51.13,33.08,51.17,32.54,51.17,32ZM32,44.17A12.17,12.17,0,1,1,44.17,32,12.17,12.17,0,0,1,32,44.17Z" transform="translate(-7.64 -7.04)"/></svg>