<svg id="Layer_1" data-name="Layer 1" xmlns="http://www.w3.org/2000/svg" viewBox="0 0 59.38 46.08"><defs><style>.cls-1{fill:#231f20;}</style></defs><title>machine-remove</title><polygon points="15.13 6.92 7.21 6.92 7.21 0 2.21 0 2.21 41.13 7.21 41.13 7.21 11.92 15.13 11.92 15.13 6.92"/><polygon points="52.03 0 52.03 6.92 28.27 6.92 28.27 11.92 52.03 11.92 52.03 41.13 57.03 41.13 57.03 0 52.03 0"/><polygon points="26.96 1.5 16.38 1.5 16.38 19.43 19.67 19.43 19.67 21.86 21.17 21.86 21.17 25.33 22.17 25.33 22.17 21.86 23.67 21.86 23.67 19.43 26.96 19.43 26.96 1.5"/><rect class="cls-1" y="41.08" width="59.38" height="5"/><line class="cls-1" x1="35.87" y1="33.08" x2="48.54" y2="33.08"/><rect class="cls-1" x="35.87" y="31.58" width="12.67" height="3"/></svg>