<svg id="Layer_1" data-name="Layer 1" xmlns="http://www.w3.org/2000/svg" viewBox="0 0 59.38 46.08"><defs><style>.cls-1{fill:#231f20;}</style></defs><title>machine-add</title><polygon class="cls-1" points="19.67 21.86 21.17 21.86 21.17 25.33 22.17 25.33 22.17 21.86 23.67 21.86 23.67 19.43 26.96 19.43 26.96 1.5 16.38 1.5 16.38 19.43 19.67 19.43 19.67 21.86"/><polygon class="cls-1" points="57.03 41.08 57.03 0 52.03 0 52.03 6.92 28.27 6.92 28.27 11.92 52.03 11.92 52.03 41.08 7.21 41.08 7.21 11.92 15.13 11.92 15.13 6.92 7.21 6.92 7.21 0 2.21 0 2.21 41.08 0 41.08 0 46.08 59.38 46.08 59.38 41.08 57.03 41.08"/><line class="cls-1" x1="35.87" y1="33.08" x2="35.87" y2="33.08"/><line class="cls-1" x1="42.21" y1="26.75" x2="42.21" y2="26.75"/><polygon class="cls-1" points="40.71 31.58 35.87 31.58 35.87 33.08 35.87 34.58 40.71 34.58 40.71 39.42 43.71 39.42 43.71 34.58 48.54 34.58 48.54 31.58 43.71 31.58 43.71 26.75 42.21 26.75 40.71 26.75 40.71 31.58"/></svg>